<mxfile host="app.diagrams.net" agent="Mozilla/5.0 (Windows NT 10.0; Win64; x64) AppleWebKit/537.36 (KHTML, like Gecko) Chrome/122.0.0.0 Safari/537.36" version="26.2.13">
  <diagram name="Page-1" id="t3sdiUp2i2eM_PAwVWJq">
    <mxGraphModel dx="1831" dy="959" grid="1" gridSize="10" guides="1" tooltips="1" connect="1" arrows="1" fold="1" page="1" pageScale="1" pageWidth="1100" pageHeight="850" math="0" shadow="0">
      <root>
        <mxCell id="0" />
        <mxCell id="1" parent="0" />
        <mxCell id="9rPlXB-XeBBHrOrYauE2-13" style="rounded=0;orthogonalLoop=1;jettySize=auto;html=1;exitX=0.5;exitY=0;exitDx=0;exitDy=0;entryX=0.25;entryY=1;entryDx=0;entryDy=0;endArrow=block;endFill=0;" edge="1" parent="1" source="9rPlXB-XeBBHrOrYauE2-3" target="9rPlXB-XeBBHrOrYauE2-2">
          <mxGeometry relative="1" as="geometry" />
        </mxCell>
        <mxCell id="9rPlXB-XeBBHrOrYauE2-18" style="edgeStyle=orthogonalEdgeStyle;rounded=0;orthogonalLoop=1;jettySize=auto;html=1;entryX=0;entryY=0.5;entryDx=0;entryDy=0;dashed=1;endArrow=open;endFill=0;exitX=1;exitY=0.75;exitDx=0;exitDy=0;" edge="1" parent="1" source="9rPlXB-XeBBHrOrYauE2-2" target="9rPlXB-XeBBHrOrYauE2-9">
          <mxGeometry relative="1" as="geometry">
            <mxPoint x="230" y="290" as="sourcePoint" />
          </mxGeometry>
        </mxCell>
        <mxCell id="9rPlXB-XeBBHrOrYauE2-19" style="edgeStyle=orthogonalEdgeStyle;rounded=0;orthogonalLoop=1;jettySize=auto;html=1;exitX=1;exitY=0.25;exitDx=0;exitDy=0;entryX=0;entryY=0.5;entryDx=0;entryDy=0;dashed=1;endArrow=open;endFill=0;" edge="1" parent="1" source="9rPlXB-XeBBHrOrYauE2-2" target="9rPlXB-XeBBHrOrYauE2-8">
          <mxGeometry relative="1" as="geometry" />
        </mxCell>
        <mxCell id="9rPlXB-XeBBHrOrYauE2-32" style="edgeStyle=orthogonalEdgeStyle;rounded=0;orthogonalLoop=1;jettySize=auto;html=1;exitX=0.5;exitY=1;exitDx=0;exitDy=0;entryX=0.5;entryY=0;entryDx=0;entryDy=0;dashed=1;endArrow=open;endFill=0;" edge="1" parent="1" source="9rPlXB-XeBBHrOrYauE2-2" target="9rPlXB-XeBBHrOrYauE2-5">
          <mxGeometry relative="1" as="geometry" />
        </mxCell>
        <mxCell id="9rPlXB-XeBBHrOrYauE2-70" style="rounded=0;orthogonalLoop=1;jettySize=auto;html=1;exitX=0.5;exitY=1;exitDx=0;exitDy=0;entryX=0.5;entryY=0;entryDx=0;entryDy=0;dashed=1;edgeStyle=orthogonalEdgeStyle;endArrow=open;endFill=0;" edge="1" parent="1" source="9rPlXB-XeBBHrOrYauE2-2" target="9rPlXB-XeBBHrOrYauE2-46">
          <mxGeometry relative="1" as="geometry" />
        </mxCell>
        <mxCell id="9rPlXB-XeBBHrOrYauE2-2" value="&lt;div&gt;&amp;lt;&amp;lt;abstract&amp;gt;&amp;gt;&lt;/div&gt;&lt;b&gt;Champion&lt;/b&gt;" style="html=1;whiteSpace=wrap;" vertex="1" parent="1">
          <mxGeometry x="220" y="240" width="110" height="50" as="geometry" />
        </mxCell>
        <mxCell id="9rPlXB-XeBBHrOrYauE2-50" style="edgeStyle=orthogonalEdgeStyle;rounded=0;orthogonalLoop=1;jettySize=auto;html=1;exitX=0.25;exitY=1;exitDx=0;exitDy=0;entryX=0;entryY=0.5;entryDx=0;entryDy=0;dashed=1;endArrow=open;endFill=0;" edge="1" parent="1" source="9rPlXB-XeBBHrOrYauE2-3" target="9rPlXB-XeBBHrOrYauE2-48">
          <mxGeometry relative="1" as="geometry" />
        </mxCell>
        <mxCell id="9rPlXB-XeBBHrOrYauE2-3" value="Training&lt;span style=&quot;background-color: transparent;&quot;&gt;Dummy&lt;/span&gt;" style="html=1;whiteSpace=wrap;fontStyle=1" vertex="1" parent="1">
          <mxGeometry x="40" y="430" width="110" height="50" as="geometry" />
        </mxCell>
        <mxCell id="9rPlXB-XeBBHrOrYauE2-4" value="AdvancedTraining&lt;span style=&quot;background-color: transparent;&quot;&gt;Dummy&lt;/span&gt;" style="html=1;whiteSpace=wrap;fontStyle=1" vertex="1" parent="1">
          <mxGeometry x="380" y="430" width="170" height="50" as="geometry" />
        </mxCell>
        <mxCell id="9rPlXB-XeBBHrOrYauE2-5" value="&lt;div&gt;&amp;lt;&amp;lt;abstract&amp;gt;&amp;gt;&lt;/div&gt;&lt;b&gt;Action&lt;/b&gt;" style="html=1;whiteSpace=wrap;" vertex="1" parent="1">
          <mxGeometry x="220" y="460" width="110" height="50" as="geometry" />
        </mxCell>
        <mxCell id="9rPlXB-XeBBHrOrYauE2-6" value="&lt;div&gt;&amp;lt;&amp;lt;abstract&amp;gt;&amp;gt;&lt;/div&gt;&lt;b&gt;BattleModifier&lt;/b&gt;" style="html=1;whiteSpace=wrap;" vertex="1" parent="1">
          <mxGeometry x="570" y="170" width="110" height="50" as="geometry" />
        </mxCell>
        <mxCell id="9rPlXB-XeBBHrOrYauE2-33" style="rounded=0;orthogonalLoop=1;jettySize=auto;html=1;exitX=0;exitY=0.5;exitDx=0;exitDy=0;entryX=1;entryY=0.5;entryDx=0;entryDy=0;endArrow=block;endFill=0;" edge="1" parent="1" source="9rPlXB-XeBBHrOrYauE2-7" target="9rPlXB-XeBBHrOrYauE2-6">
          <mxGeometry relative="1" as="geometry" />
        </mxCell>
        <mxCell id="9rPlXB-XeBBHrOrYauE2-7" value="&lt;div&gt;&amp;lt;&amp;lt;abstract&amp;gt;&amp;gt;&lt;/div&gt;&lt;b&gt;TemporaryModifier&lt;/b&gt;" style="html=1;whiteSpace=wrap;" vertex="1" parent="1">
          <mxGeometry x="750" y="100" width="160" height="50" as="geometry" />
        </mxCell>
        <mxCell id="9rPlXB-XeBBHrOrYauE2-20" style="edgeStyle=orthogonalEdgeStyle;rounded=0;orthogonalLoop=1;jettySize=auto;html=1;exitX=1;exitY=0.5;exitDx=0;exitDy=0;entryX=0;entryY=0.5;entryDx=0;entryDy=0;dashed=1;endArrow=open;endFill=0;" edge="1" parent="1" source="9rPlXB-XeBBHrOrYauE2-8" target="9rPlXB-XeBBHrOrYauE2-6">
          <mxGeometry relative="1" as="geometry" />
        </mxCell>
        <mxCell id="9rPlXB-XeBBHrOrYauE2-22" style="edgeStyle=orthogonalEdgeStyle;rounded=0;orthogonalLoop=1;jettySize=auto;html=1;exitX=1;exitY=0.25;exitDx=0;exitDy=0;entryX=0;entryY=0.5;entryDx=0;entryDy=0;dashed=1;endArrow=open;endFill=0;" edge="1" parent="1" source="9rPlXB-XeBBHrOrYauE2-8" target="9rPlXB-XeBBHrOrYauE2-7">
          <mxGeometry relative="1" as="geometry">
            <Array as="points">
              <mxPoint x="510" y="223" />
              <mxPoint x="510" y="125" />
            </Array>
          </mxGeometry>
        </mxCell>
        <mxCell id="9rPlXB-XeBBHrOrYauE2-23" style="edgeStyle=orthogonalEdgeStyle;rounded=0;orthogonalLoop=1;jettySize=auto;html=1;exitX=1;exitY=0.75;exitDx=0;exitDy=0;entryX=0;entryY=0.25;entryDx=0;entryDy=0;dashed=1;endArrow=open;endFill=0;" edge="1" parent="1" source="9rPlXB-XeBBHrOrYauE2-8" target="9rPlXB-XeBBHrOrYauE2-10">
          <mxGeometry relative="1" as="geometry" />
        </mxCell>
        <mxCell id="9rPlXB-XeBBHrOrYauE2-27" style="edgeStyle=orthogonalEdgeStyle;rounded=0;orthogonalLoop=1;jettySize=auto;html=1;exitX=1;exitY=0.75;exitDx=0;exitDy=0;entryX=0;entryY=0.25;entryDx=0;entryDy=0;dashed=1;endArrow=open;endFill=0;" edge="1" parent="1" source="9rPlXB-XeBBHrOrYauE2-8" target="9rPlXB-XeBBHrOrYauE2-11">
          <mxGeometry relative="1" as="geometry">
            <Array as="points">
              <mxPoint x="620" y="248" />
              <mxPoint x="620" y="343" />
            </Array>
          </mxGeometry>
        </mxCell>
        <mxCell id="9rPlXB-XeBBHrOrYauE2-28" style="edgeStyle=orthogonalEdgeStyle;rounded=0;orthogonalLoop=1;jettySize=auto;html=1;exitX=1;exitY=0.75;exitDx=0;exitDy=0;entryX=0;entryY=0.25;entryDx=0;entryDy=0;dashed=1;endArrow=open;endFill=0;" edge="1" parent="1" source="9rPlXB-XeBBHrOrYauE2-8" target="9rPlXB-XeBBHrOrYauE2-12">
          <mxGeometry relative="1" as="geometry">
            <Array as="points">
              <mxPoint x="620" y="248" />
              <mxPoint x="620" y="413" />
            </Array>
          </mxGeometry>
        </mxCell>
        <mxCell id="9rPlXB-XeBBHrOrYauE2-8" value="Loadout" style="html=1;whiteSpace=wrap;fontStyle=1" vertex="1" parent="1">
          <mxGeometry x="410" y="210" width="80" height="50" as="geometry" />
        </mxCell>
        <mxCell id="9rPlXB-XeBBHrOrYauE2-21" style="edgeStyle=orthogonalEdgeStyle;rounded=0;orthogonalLoop=1;jettySize=auto;html=1;exitX=1;exitY=0.25;exitDx=0;exitDy=0;entryX=0;entryY=0.75;entryDx=0;entryDy=0;dashed=1;endArrow=open;endFill=0;" edge="1" parent="1" source="9rPlXB-XeBBHrOrYauE2-9" target="9rPlXB-XeBBHrOrYauE2-6">
          <mxGeometry relative="1" as="geometry">
            <Array as="points">
              <mxPoint x="550" y="293" />
              <mxPoint x="550" y="208" />
            </Array>
          </mxGeometry>
        </mxCell>
        <mxCell id="9rPlXB-XeBBHrOrYauE2-29" style="edgeStyle=orthogonalEdgeStyle;rounded=0;orthogonalLoop=1;jettySize=auto;html=1;exitX=1;exitY=0.75;exitDx=0;exitDy=0;entryX=0;entryY=0.75;entryDx=0;entryDy=0;endArrow=open;endFill=0;dashed=1;" edge="1" parent="1" source="9rPlXB-XeBBHrOrYauE2-9" target="9rPlXB-XeBBHrOrYauE2-10">
          <mxGeometry relative="1" as="geometry">
            <Array as="points">
              <mxPoint x="580" y="317" />
              <mxPoint x="580" y="297" />
            </Array>
          </mxGeometry>
        </mxCell>
        <mxCell id="9rPlXB-XeBBHrOrYauE2-30" style="edgeStyle=orthogonalEdgeStyle;rounded=0;orthogonalLoop=1;jettySize=auto;html=1;exitX=1;exitY=0.75;exitDx=0;exitDy=0;entryX=0;entryY=0.75;entryDx=0;entryDy=0;endArrow=open;endFill=0;dashed=1;" edge="1" parent="1" source="9rPlXB-XeBBHrOrYauE2-9" target="9rPlXB-XeBBHrOrYauE2-11">
          <mxGeometry relative="1" as="geometry">
            <Array as="points">
              <mxPoint x="580" y="317" />
              <mxPoint x="580" y="367" />
            </Array>
          </mxGeometry>
        </mxCell>
        <mxCell id="9rPlXB-XeBBHrOrYauE2-31" style="edgeStyle=orthogonalEdgeStyle;rounded=0;orthogonalLoop=1;jettySize=auto;html=1;exitX=1;exitY=0.75;exitDx=0;exitDy=0;entryX=0;entryY=0.75;entryDx=0;entryDy=0;endArrow=open;endFill=0;dashed=1;" edge="1" parent="1" source="9rPlXB-XeBBHrOrYauE2-9" target="9rPlXB-XeBBHrOrYauE2-12">
          <mxGeometry relative="1" as="geometry">
            <Array as="points">
              <mxPoint x="580" y="317" />
              <mxPoint x="580" y="437" />
            </Array>
          </mxGeometry>
        </mxCell>
        <mxCell id="9rPlXB-XeBBHrOrYauE2-9" value="Arsenal" style="html=1;whiteSpace=wrap;fontStyle=1" vertex="1" parent="1">
          <mxGeometry x="410" y="280" width="80" height="50" as="geometry" />
        </mxCell>
        <mxCell id="9rPlXB-XeBBHrOrYauE2-10" value="&lt;span style=&quot;font-weight: 400;&quot;&gt;&amp;lt;&amp;lt;abstract&amp;gt;&amp;gt;&lt;/span&gt;&lt;div&gt;Tactic&lt;/div&gt;" style="html=1;whiteSpace=wrap;fontStyle=1" vertex="1" parent="1">
          <mxGeometry x="750" y="260" width="80" height="50" as="geometry" />
        </mxCell>
        <mxCell id="9rPlXB-XeBBHrOrYauE2-11" value="&lt;span style=&quot;font-weight: 400;&quot;&gt;&amp;lt;&amp;lt;abstract&amp;gt;&amp;gt;&lt;/span&gt;&lt;div&gt;Relic&lt;/div&gt;" style="html=1;whiteSpace=wrap;fontStyle=1" vertex="1" parent="1">
          <mxGeometry x="750" y="330" width="80" height="50" as="geometry" />
        </mxCell>
        <mxCell id="9rPlXB-XeBBHrOrYauE2-12" value="&lt;span style=&quot;font-weight: 400;&quot;&gt;&amp;lt;&amp;lt;abstract&amp;gt;&amp;gt;&lt;/span&gt;&lt;div&gt;Gambit&lt;/div&gt;" style="html=1;whiteSpace=wrap;fontStyle=1" vertex="1" parent="1">
          <mxGeometry x="750" y="400" width="80" height="50" as="geometry" />
        </mxCell>
        <mxCell id="9rPlXB-XeBBHrOrYauE2-16" style="rounded=0;orthogonalLoop=1;jettySize=auto;html=1;exitX=0.5;exitY=0;exitDx=0;exitDy=0;entryX=0.75;entryY=1;entryDx=0;entryDy=0;endArrow=block;endFill=0;" edge="1" parent="1" source="9rPlXB-XeBBHrOrYauE2-4" target="9rPlXB-XeBBHrOrYauE2-2">
          <mxGeometry relative="1" as="geometry">
            <mxPoint x="280" y="195" as="sourcePoint" />
            <mxPoint x="240" y="285" as="targetPoint" />
          </mxGeometry>
        </mxCell>
        <mxCell id="9rPlXB-XeBBHrOrYauE2-34" value="EmberCrystal" style="html=1;whiteSpace=wrap;fontStyle=1" vertex="1" parent="1">
          <mxGeometry x="950" y="300" width="110" height="50" as="geometry" />
        </mxCell>
        <mxCell id="9rPlXB-XeBBHrOrYauE2-35" value="StoneAmulet" style="html=1;whiteSpace=wrap;fontStyle=1" vertex="1" parent="1">
          <mxGeometry x="950" y="360" width="110" height="50" as="geometry" />
        </mxCell>
        <mxCell id="9rPlXB-XeBBHrOrYauE2-36" value="AdrenalSurge" style="html=1;whiteSpace=wrap;fontStyle=1" vertex="1" parent="1">
          <mxGeometry x="950" y="420" width="110" height="50" as="geometry" />
        </mxCell>
        <mxCell id="9rPlXB-XeBBHrOrYauE2-37" value="RecklessBurst" style="html=1;whiteSpace=wrap;fontStyle=1" vertex="1" parent="1">
          <mxGeometry x="950" y="480" width="110" height="50" as="geometry" />
        </mxCell>
        <mxCell id="9rPlXB-XeBBHrOrYauE2-38" value="LastLight" style="html=1;whiteSpace=wrap;fontStyle=1" vertex="1" parent="1">
          <mxGeometry x="950" y="240" width="110" height="50" as="geometry" />
        </mxCell>
        <mxCell id="9rPlXB-XeBBHrOrYauE2-40" style="rounded=0;orthogonalLoop=1;jettySize=auto;html=1;exitX=0;exitY=0.5;exitDx=0;exitDy=0;entryX=1;entryY=0.25;entryDx=0;entryDy=0;endArrow=block;endFill=0;" edge="1" parent="1" source="9rPlXB-XeBBHrOrYauE2-39" target="9rPlXB-XeBBHrOrYauE2-10">
          <mxGeometry relative="1" as="geometry" />
        </mxCell>
        <mxCell id="9rPlXB-XeBBHrOrYauE2-39" value="ChargeBreaker" style="html=1;whiteSpace=wrap;fontStyle=1" vertex="1" parent="1">
          <mxGeometry x="950" y="180" width="110" height="50" as="geometry" />
        </mxCell>
        <mxCell id="9rPlXB-XeBBHrOrYauE2-41" style="rounded=0;orthogonalLoop=1;jettySize=auto;html=1;exitX=0;exitY=0.5;exitDx=0;exitDy=0;endArrow=block;endFill=0;entryX=1;entryY=0.75;entryDx=0;entryDy=0;" edge="1" parent="1" source="9rPlXB-XeBBHrOrYauE2-38" target="9rPlXB-XeBBHrOrYauE2-10">
          <mxGeometry relative="1" as="geometry">
            <mxPoint x="960" y="215" as="sourcePoint" />
            <mxPoint x="830" y="290" as="targetPoint" />
          </mxGeometry>
        </mxCell>
        <mxCell id="9rPlXB-XeBBHrOrYauE2-42" style="rounded=0;orthogonalLoop=1;jettySize=auto;html=1;exitX=0;exitY=0.5;exitDx=0;exitDy=0;entryX=1;entryY=0.25;entryDx=0;entryDy=0;endArrow=block;endFill=0;" edge="1" parent="1" source="9rPlXB-XeBBHrOrYauE2-34" target="9rPlXB-XeBBHrOrYauE2-11">
          <mxGeometry relative="1" as="geometry">
            <mxPoint x="970" y="225" as="sourcePoint" />
            <mxPoint x="850" y="305" as="targetPoint" />
          </mxGeometry>
        </mxCell>
        <mxCell id="9rPlXB-XeBBHrOrYauE2-43" style="rounded=0;orthogonalLoop=1;jettySize=auto;html=1;exitX=0;exitY=0.5;exitDx=0;exitDy=0;entryX=1;entryY=0.75;entryDx=0;entryDy=0;endArrow=block;endFill=0;" edge="1" parent="1" source="9rPlXB-XeBBHrOrYauE2-35" target="9rPlXB-XeBBHrOrYauE2-11">
          <mxGeometry relative="1" as="geometry">
            <mxPoint x="980" y="235" as="sourcePoint" />
            <mxPoint x="860" y="315" as="targetPoint" />
          </mxGeometry>
        </mxCell>
        <mxCell id="9rPlXB-XeBBHrOrYauE2-44" style="rounded=0;orthogonalLoop=1;jettySize=auto;html=1;exitX=0;exitY=0.5;exitDx=0;exitDy=0;entryX=1;entryY=0.25;entryDx=0;entryDy=0;endArrow=block;endFill=0;" edge="1" parent="1" source="9rPlXB-XeBBHrOrYauE2-36" target="9rPlXB-XeBBHrOrYauE2-12">
          <mxGeometry relative="1" as="geometry">
            <mxPoint x="990" y="245" as="sourcePoint" />
            <mxPoint x="870" y="325" as="targetPoint" />
          </mxGeometry>
        </mxCell>
        <mxCell id="9rPlXB-XeBBHrOrYauE2-45" style="rounded=0;orthogonalLoop=1;jettySize=auto;html=1;exitX=0;exitY=0.5;exitDx=0;exitDy=0;entryX=1;entryY=0.75;entryDx=0;entryDy=0;endArrow=block;endFill=0;" edge="1" parent="1" source="9rPlXB-XeBBHrOrYauE2-37" target="9rPlXB-XeBBHrOrYauE2-12">
          <mxGeometry relative="1" as="geometry">
            <mxPoint x="1000" y="255" as="sourcePoint" />
            <mxPoint x="880" y="335" as="targetPoint" />
          </mxGeometry>
        </mxCell>
        <mxCell id="9rPlXB-XeBBHrOrYauE2-46" value="PlayGambit" style="html=1;whiteSpace=wrap;fontStyle=1" vertex="1" parent="1">
          <mxGeometry x="180" y="380" width="80" height="50" as="geometry" />
        </mxCell>
        <mxCell id="9rPlXB-XeBBHrOrYauE2-47" style="rounded=0;orthogonalLoop=1;jettySize=auto;html=1;entryX=0.25;entryY=0;entryDx=0;entryDy=0;endArrow=block;endFill=0;exitX=0.5;exitY=1;exitDx=0;exitDy=0;" edge="1" parent="1" source="9rPlXB-XeBBHrOrYauE2-46" target="9rPlXB-XeBBHrOrYauE2-5">
          <mxGeometry relative="1" as="geometry">
            <mxPoint x="210" y="420" as="sourcePoint" />
            <mxPoint x="258" y="300" as="targetPoint" />
          </mxGeometry>
        </mxCell>
        <mxCell id="9rPlXB-XeBBHrOrYauE2-48" value="Headbutt" style="html=1;whiteSpace=wrap;fontStyle=1" vertex="1" parent="1">
          <mxGeometry x="110" y="520" width="80" height="50" as="geometry" />
        </mxCell>
        <mxCell id="9rPlXB-XeBBHrOrYauE2-49" style="rounded=0;orthogonalLoop=1;jettySize=auto;html=1;exitX=1;exitY=0.5;exitDx=0;exitDy=0;endArrow=block;endFill=0;entryX=0.25;entryY=1;entryDx=0;entryDy=0;" edge="1" parent="1" source="9rPlXB-XeBBHrOrYauE2-48" target="9rPlXB-XeBBHrOrYauE2-5">
          <mxGeometry relative="1" as="geometry">
            <mxPoint x="285" y="480" as="sourcePoint" />
            <mxPoint x="200" y="485" as="targetPoint" />
          </mxGeometry>
        </mxCell>
        <mxCell id="9rPlXB-XeBBHrOrYauE2-51" value="Shrug" style="html=1;whiteSpace=wrap;fontStyle=1" vertex="1" parent="1">
          <mxGeometry x="110" y="590" width="80" height="50" as="geometry" />
        </mxCell>
        <mxCell id="9rPlXB-XeBBHrOrYauE2-52" value="Bandaid" style="html=1;whiteSpace=wrap;fontStyle=1" vertex="1" parent="1">
          <mxGeometry x="110" y="660" width="80" height="50" as="geometry" />
        </mxCell>
        <mxCell id="9rPlXB-XeBBHrOrYauE2-53" value="Jab" style="html=1;whiteSpace=wrap;fontStyle=1" vertex="1" parent="1">
          <mxGeometry x="380" y="520" width="80" height="50" as="geometry" />
        </mxCell>
        <mxCell id="9rPlXB-XeBBHrOrYauE2-54" value="Brace" style="html=1;whiteSpace=wrap;fontStyle=1" vertex="1" parent="1">
          <mxGeometry x="380" y="590" width="80" height="50" as="geometry" />
        </mxCell>
        <mxCell id="9rPlXB-XeBBHrOrYauE2-55" value="WindUpSlam" style="html=1;whiteSpace=wrap;fontStyle=1" vertex="1" parent="1">
          <mxGeometry x="380" y="660" width="80" height="50" as="geometry" />
        </mxCell>
        <mxCell id="9rPlXB-XeBBHrOrYauE2-56" value="PoisonDart" style="html=1;whiteSpace=wrap;fontStyle=1" vertex="1" parent="1">
          <mxGeometry x="380" y="730" width="80" height="50" as="geometry" />
        </mxCell>
        <mxCell id="9rPlXB-XeBBHrOrYauE2-57" style="rounded=0;orthogonalLoop=1;jettySize=auto;html=1;exitX=1;exitY=0.5;exitDx=0;exitDy=0;endArrow=block;endFill=0;entryX=0.25;entryY=1;entryDx=0;entryDy=0;" edge="1" parent="1" source="9rPlXB-XeBBHrOrYauE2-51" target="9rPlXB-XeBBHrOrYauE2-5">
          <mxGeometry relative="1" as="geometry">
            <mxPoint x="200" y="555" as="sourcePoint" />
            <mxPoint x="240" y="420" as="targetPoint" />
          </mxGeometry>
        </mxCell>
        <mxCell id="9rPlXB-XeBBHrOrYauE2-58" style="rounded=0;orthogonalLoop=1;jettySize=auto;html=1;exitX=1;exitY=0.5;exitDx=0;exitDy=0;endArrow=block;endFill=0;entryX=0.25;entryY=1;entryDx=0;entryDy=0;" edge="1" parent="1" source="9rPlXB-XeBBHrOrYauE2-52" target="9rPlXB-XeBBHrOrYauE2-5">
          <mxGeometry relative="1" as="geometry">
            <mxPoint x="210" y="565" as="sourcePoint" />
            <mxPoint x="240" y="420" as="targetPoint" />
          </mxGeometry>
        </mxCell>
        <mxCell id="9rPlXB-XeBBHrOrYauE2-59" style="edgeStyle=orthogonalEdgeStyle;rounded=0;orthogonalLoop=1;jettySize=auto;html=1;entryX=0;entryY=0.5;entryDx=0;entryDy=0;exitX=0.25;exitY=1;exitDx=0;exitDy=0;dashed=1;endArrow=open;endFill=0;" edge="1" parent="1" source="9rPlXB-XeBBHrOrYauE2-3" target="9rPlXB-XeBBHrOrYauE2-51">
          <mxGeometry relative="1" as="geometry">
            <mxPoint x="110" y="480" as="sourcePoint" />
            <mxPoint x="120" y="555" as="targetPoint" />
          </mxGeometry>
        </mxCell>
        <mxCell id="9rPlXB-XeBBHrOrYauE2-60" style="edgeStyle=orthogonalEdgeStyle;rounded=0;orthogonalLoop=1;jettySize=auto;html=1;exitX=0.25;exitY=1;exitDx=0;exitDy=0;entryX=0;entryY=0.5;entryDx=0;entryDy=0;dashed=1;endArrow=open;endFill=0;" edge="1" parent="1" source="9rPlXB-XeBBHrOrYauE2-3" target="9rPlXB-XeBBHrOrYauE2-52">
          <mxGeometry relative="1" as="geometry">
            <mxPoint x="100" y="500" as="sourcePoint" />
            <mxPoint x="130" y="565" as="targetPoint" />
          </mxGeometry>
        </mxCell>
        <mxCell id="9rPlXB-XeBBHrOrYauE2-61" style="edgeStyle=orthogonalEdgeStyle;rounded=0;orthogonalLoop=1;jettySize=auto;html=1;exitX=0.75;exitY=1;exitDx=0;exitDy=0;entryX=1;entryY=0.5;entryDx=0;entryDy=0;dashed=1;endArrow=open;endFill=0;" edge="1" parent="1" source="9rPlXB-XeBBHrOrYauE2-4" target="9rPlXB-XeBBHrOrYauE2-53">
          <mxGeometry relative="1" as="geometry">
            <mxPoint x="110" y="510" as="sourcePoint" />
            <mxPoint x="140" y="575" as="targetPoint" />
          </mxGeometry>
        </mxCell>
        <mxCell id="9rPlXB-XeBBHrOrYauE2-62" style="edgeStyle=orthogonalEdgeStyle;rounded=0;orthogonalLoop=1;jettySize=auto;html=1;exitX=0.75;exitY=1;exitDx=0;exitDy=0;entryX=1;entryY=0.5;entryDx=0;entryDy=0;dashed=1;endArrow=open;endFill=0;" edge="1" parent="1" source="9rPlXB-XeBBHrOrYauE2-4" target="9rPlXB-XeBBHrOrYauE2-54">
          <mxGeometry relative="1" as="geometry">
            <mxPoint x="518" y="490" as="sourcePoint" />
            <mxPoint x="470" y="555" as="targetPoint" />
          </mxGeometry>
        </mxCell>
        <mxCell id="9rPlXB-XeBBHrOrYauE2-63" style="edgeStyle=orthogonalEdgeStyle;rounded=0;orthogonalLoop=1;jettySize=auto;html=1;entryX=1;entryY=0.5;entryDx=0;entryDy=0;exitX=0.75;exitY=1;exitDx=0;exitDy=0;dashed=1;endArrow=open;endFill=0;" edge="1" parent="1" source="9rPlXB-XeBBHrOrYauE2-4" target="9rPlXB-XeBBHrOrYauE2-55">
          <mxGeometry relative="1" as="geometry">
            <mxPoint x="500" y="480" as="sourcePoint" />
            <mxPoint x="480" y="565" as="targetPoint" />
            <Array as="points">
              <mxPoint x="508" y="685" />
            </Array>
          </mxGeometry>
        </mxCell>
        <mxCell id="9rPlXB-XeBBHrOrYauE2-64" style="edgeStyle=orthogonalEdgeStyle;rounded=0;orthogonalLoop=1;jettySize=auto;html=1;exitX=0.75;exitY=1;exitDx=0;exitDy=0;entryX=1;entryY=0.5;entryDx=0;entryDy=0;dashed=1;endArrow=open;endFill=0;" edge="1" parent="1" source="9rPlXB-XeBBHrOrYauE2-4" target="9rPlXB-XeBBHrOrYauE2-56">
          <mxGeometry relative="1" as="geometry">
            <mxPoint x="538" y="510" as="sourcePoint" />
            <mxPoint x="490" y="575" as="targetPoint" />
          </mxGeometry>
        </mxCell>
        <mxCell id="9rPlXB-XeBBHrOrYauE2-65" style="rounded=0;orthogonalLoop=1;jettySize=auto;html=1;exitX=0;exitY=0.5;exitDx=0;exitDy=0;endArrow=block;endFill=0;entryX=0.75;entryY=1;entryDx=0;entryDy=0;" edge="1" parent="1" source="9rPlXB-XeBBHrOrYauE2-53" target="9rPlXB-XeBBHrOrYauE2-5">
          <mxGeometry relative="1" as="geometry">
            <mxPoint x="200" y="695" as="sourcePoint" />
            <mxPoint x="303" y="420" as="targetPoint" />
          </mxGeometry>
        </mxCell>
        <mxCell id="9rPlXB-XeBBHrOrYauE2-66" style="rounded=0;orthogonalLoop=1;jettySize=auto;html=1;exitX=0;exitY=0.5;exitDx=0;exitDy=0;endArrow=block;endFill=0;entryX=0.75;entryY=1;entryDx=0;entryDy=0;" edge="1" parent="1" source="9rPlXB-XeBBHrOrYauE2-54" target="9rPlXB-XeBBHrOrYauE2-5">
          <mxGeometry relative="1" as="geometry">
            <mxPoint x="210" y="705" as="sourcePoint" />
            <mxPoint x="300" y="420" as="targetPoint" />
          </mxGeometry>
        </mxCell>
        <mxCell id="9rPlXB-XeBBHrOrYauE2-67" style="rounded=0;orthogonalLoop=1;jettySize=auto;html=1;exitX=0;exitY=0.5;exitDx=0;exitDy=0;endArrow=block;endFill=0;entryX=0.75;entryY=1;entryDx=0;entryDy=0;" edge="1" parent="1" source="9rPlXB-XeBBHrOrYauE2-55" target="9rPlXB-XeBBHrOrYauE2-5">
          <mxGeometry relative="1" as="geometry">
            <mxPoint x="220" y="715" as="sourcePoint" />
            <mxPoint x="300" y="420" as="targetPoint" />
          </mxGeometry>
        </mxCell>
        <mxCell id="9rPlXB-XeBBHrOrYauE2-68" style="rounded=0;orthogonalLoop=1;jettySize=auto;html=1;exitX=0;exitY=0.5;exitDx=0;exitDy=0;endArrow=block;endFill=0;entryX=0.75;entryY=1;entryDx=0;entryDy=0;" edge="1" parent="1" source="9rPlXB-XeBBHrOrYauE2-56" target="9rPlXB-XeBBHrOrYauE2-5">
          <mxGeometry relative="1" as="geometry">
            <mxPoint x="230" y="725" as="sourcePoint" />
            <mxPoint x="300" y="420" as="targetPoint" />
          </mxGeometry>
        </mxCell>
        <mxCell id="9rPlXB-XeBBHrOrYauE2-71" style="edgeStyle=orthogonalEdgeStyle;rounded=0;orthogonalLoop=1;jettySize=auto;html=1;entryX=0;entryY=0.75;entryDx=0;entryDy=0;endArrow=open;endFill=0;dashed=1;" edge="1" parent="1">
          <mxGeometry relative="1" as="geometry">
            <mxPoint x="670" y="700" as="sourcePoint" />
            <mxPoint x="930" y="700" as="targetPoint" />
            <Array as="points">
              <mxPoint x="710" y="700" />
              <mxPoint x="710" y="700" />
            </Array>
          </mxGeometry>
        </mxCell>
        <mxCell id="9rPlXB-XeBBHrOrYauE2-73" value="&lt;b&gt;HAS - A&lt;/b&gt;" style="edgeLabel;html=1;align=center;verticalAlign=middle;resizable=0;points=[];" vertex="1" connectable="0" parent="9rPlXB-XeBBHrOrYauE2-71">
          <mxGeometry x="0.0977" y="-1" relative="1" as="geometry">
            <mxPoint as="offset" />
          </mxGeometry>
        </mxCell>
        <mxCell id="9rPlXB-XeBBHrOrYauE2-72" style="rounded=0;orthogonalLoop=1;jettySize=auto;html=1;endArrow=block;endFill=0;" edge="1" parent="1">
          <mxGeometry relative="1" as="geometry">
            <mxPoint x="670" y="730" as="sourcePoint" />
            <mxPoint x="930" y="730" as="targetPoint" />
          </mxGeometry>
        </mxCell>
        <mxCell id="9rPlXB-XeBBHrOrYauE2-74" value="&lt;b&gt;IS - A&lt;/b&gt;" style="edgeLabel;html=1;align=center;verticalAlign=middle;resizable=0;points=[];" vertex="1" connectable="0" parent="9rPlXB-XeBBHrOrYauE2-72">
          <mxGeometry x="0.1131" y="1" relative="1" as="geometry">
            <mxPoint as="offset" />
          </mxGeometry>
        </mxCell>
        <mxCell id="9rPlXB-XeBBHrOrYauE2-75" style="rounded=0;orthogonalLoop=1;jettySize=auto;html=1;exitX=0;exitY=0.5;exitDx=0;exitDy=0;endArrow=block;endFill=0;entryX=1;entryY=0.5;entryDx=0;entryDy=0;" edge="1" parent="1" source="9rPlXB-XeBBHrOrYauE2-10" target="9rPlXB-XeBBHrOrYauE2-6">
          <mxGeometry relative="1" as="geometry">
            <mxPoint x="760" y="135" as="sourcePoint" />
            <mxPoint x="830" y="220" as="targetPoint" />
          </mxGeometry>
        </mxCell>
        <mxCell id="9rPlXB-XeBBHrOrYauE2-76" style="rounded=0;orthogonalLoop=1;jettySize=auto;html=1;exitX=0;exitY=0.5;exitDx=0;exitDy=0;endArrow=block;endFill=0;entryX=1;entryY=0.5;entryDx=0;entryDy=0;" edge="1" parent="1" source="9rPlXB-XeBBHrOrYauE2-11" target="9rPlXB-XeBBHrOrYauE2-6">
          <mxGeometry relative="1" as="geometry">
            <mxPoint x="760" y="295" as="sourcePoint" />
            <mxPoint x="680" y="200" as="targetPoint" />
          </mxGeometry>
        </mxCell>
        <mxCell id="9rPlXB-XeBBHrOrYauE2-77" style="rounded=0;orthogonalLoop=1;jettySize=auto;html=1;exitX=0;exitY=0.5;exitDx=0;exitDy=0;endArrow=block;endFill=0;entryX=1;entryY=0.5;entryDx=0;entryDy=0;" edge="1" parent="1" source="9rPlXB-XeBBHrOrYauE2-12" target="9rPlXB-XeBBHrOrYauE2-6">
          <mxGeometry relative="1" as="geometry">
            <mxPoint x="770" y="305" as="sourcePoint" />
            <mxPoint x="700" y="215" as="targetPoint" />
          </mxGeometry>
        </mxCell>
        <mxCell id="9rPlXB-XeBBHrOrYauE2-78" value="Champions&#39; Arena Partial Class Diagram" style="rounded=1;whiteSpace=wrap;html=1;fontSize=24;strokeColor=none;align=left;" vertex="1" parent="1">
          <mxGeometry x="30" y="10" width="640" height="60" as="geometry" />
        </mxCell>
      </root>
    </mxGraphModel>
  </diagram>
</mxfile>
